<svg width="74" height="36" viewBox="0 0 74 36" fill="none" xmlns="http://www.w3.org/2000/svg">
<path d="M37 0C38.1046 0 39 0.895431 39 2V13C39 14.6569 40.3431 16 42 16H72C73.1046 16 74 16.8954 74 18C74 19.1046 73.1046 20 72 20H42C40.3431 20 39 21.3431 39 23V34C39 35.1046 38.1046 36 37 36C35.8954 36 35 35.1046 35 34V23C35 21.3431 33.6569 20 32 20H2C0.895432 20 1.69987e-06 19.1046 0 18C4.82823e-08 16.8954 0.895431 16 2 16H32C33.6569 16 35 14.6569 35 13V2C35 0.895431 35.8954 0 37 0Z" fill="#F56D22"/>
</svg>
