<svg width="74" height="40" viewBox="0 0 74 40" fill="none" xmlns="http://www.w3.org/2000/svg">
<path d="M37.9023 0C38.2525 8.22973e-07 38.6006 0.00845795 38.9463 0.0263672C58.476 0.569447 73.9999 9.23901 74 19.8535C74 30.4681 58.4761 39.1366 38.9463 39.6797C38.6006 39.6976 38.2525 39.707 37.9023 39.707C37.797 39.707 37.6919 39.7038 37.5869 39.7021C37.3916 39.7038 37.196 39.707 37 39.707C16.5655 39.707 0 30.8184 0 19.8535C0.000144078 8.88871 16.5656 0 37 0C37.196 0 37.3916 0.00227672 37.5869 0.00390625C37.6919 0.00227112 37.797 7.42695e-07 37.9023 0ZM37.6123 3.00391C28.4382 3.15878 21.0489 10.6425 21.0488 19.8535C21.0488 29.0646 28.4381 36.5473 37.6123 36.7021C38.0133 36.6985 38.4124 36.6933 38.8096 36.6826C47.6957 36.2112 54.7559 28.8572 54.7559 19.8535C54.7558 10.8499 47.6957 3.49479 38.8096 3.02344C38.4124 3.01272 38.0133 3.00755 37.6123 3.00391ZM20.5513 10.1962C21.5771 8.35692 19.9075 5.31438 17.9178 6.00464C15.8565 6.71974 13.9588 7.54426 12.2559 8.45801C5.95178 11.8407 3.00007 16.009 3 19.8535C3 23.6981 5.9517 27.8663 12.2559 31.249C13.9589 32.1628 15.8567 32.9872 17.9181 33.7021C19.9078 34.3921 21.5773 31.3495 20.5514 29.5103C18.9572 26.6519 18.0488 23.3588 18.0488 19.8535C18.0489 16.3482 18.9572 13.0548 20.5513 10.1962ZM58.4602 6.90803C56.5103 6.09967 54.706 9.06874 55.6538 10.9548C56.9986 13.6313 57.7558 16.6538 57.7559 19.8535C57.7559 23.0531 56.9985 26.0754 55.6536 28.7517C54.7059 30.6377 56.51 33.607 58.46 32.7988C59.6209 32.3177 60.7179 31.7997 61.7441 31.249C68.0483 27.8663 71 23.6981 71 19.8535C70.9999 16.009 68.0482 11.8407 61.7441 8.45801C60.7179 7.90739 59.621 7.38928 58.4602 6.90803Z" fill="#F56D22"/>
</svg>
