<svg width="74" height="74" viewBox="0 0 74 74" fill="none" xmlns="http://www.w3.org/2000/svg">
<path d="M37 0C38.1046 0 39 0.895431 39 2V24.9283C39 27.601 42.2314 28.9395 44.1213 27.0496L60.334 10.8369C61.115 10.0561 62.3811 10.0561 63.1621 10.8369C63.9431 11.6179 63.943 12.884 63.1621 13.665L46.9485 29.8787C45.0586 31.7686 46.3971 35 49.0698 35H72C73.1046 35 74 35.8954 74 37C74 38.1046 73.1046 39 72 39H49.0727C46.4 39 45.0615 42.2314 46.9514 44.1213L63.1641 60.334C63.9451 61.115 63.9451 62.382 63.1641 63.1631C62.3831 63.9439 61.117 63.9437 60.3359 63.1631L44.1213 46.9485C42.2314 45.0586 39 46.3971 39 49.0698V72C39 73.1046 38.1046 74 37 74C35.8954 74 35 73.1046 35 72V49.07C35 46.3973 31.7685 45.0588 29.8786 46.9488L13.665 63.1631C12.884 63.9441 11.617 63.9441 10.8359 63.1631C10.0552 62.3822 10.0554 61.116 10.8359 60.335L27.0496 44.1213C28.9395 42.2314 27.601 39 24.9283 39H2C0.895432 39 1.69987e-06 38.1046 0 37C4.82823e-08 35.8954 0.895431 35 2 35H24.9302C27.6029 35 28.9414 31.7686 27.0515 29.8787L10.8379 13.665C10.0571 12.884 10.057 11.6179 10.8379 10.8369C11.6189 10.0559 12.885 10.056 13.666 10.8369L29.8787 27.0489C31.7686 28.9387 35 27.6002 35 24.9275V2C35 0.895431 35.8954 0 37 0Z" fill="#F56D22"/>
</svg>
