<svg width="48" height="48" viewBox="0 0 48 48" fill="none" xmlns="http://www.w3.org/2000/svg">
<rect width="48" height="48" fill="#8834D8" fill-opacity="0.4"/>
<path d="M38.7076 17.2926L34.7076 13.2926C34.52 13.1049 34.2655 12.9995 34.0001 12.9995C33.7348 12.9995 33.4803 13.1049 33.2926 13.2926C33.105 13.4802 32.9996 13.7347 32.9996 14.0001C32.9996 14.2654 33.105 14.5199 33.2926 14.7076L35.5864 17.0001H34.0001C27.8339 17.0001 26.3689 20.5151 25.0776 23.6151C23.9051 26.4288 22.9626 28.6888 18.8926 28.9701C18.6372 27.7576 17.9407 26.6832 16.9382 25.955C15.9356 25.2269 14.6984 24.897 13.4664 25.0292C12.2344 25.1615 11.0954 25.7465 10.2702 26.6708C9.44496 27.5951 8.99235 28.7929 9.0001 30.0319C9.00784 31.271 9.47538 32.463 10.3121 33.3769C11.1488 34.2909 12.295 34.8616 13.5285 34.9784C14.7621 35.0952 15.9951 34.7499 16.9885 34.0093C17.9819 33.2687 18.6649 32.1856 18.9051 30.9701C24.3126 30.6388 25.6976 27.3263 26.9226 24.3838C28.1764 21.3751 29.1664 19.0001 34.0001 19.0001H35.5864L33.2926 21.2926C33.105 21.4802 32.9996 21.7347 32.9996 22.0001C32.9996 22.2654 33.105 22.5199 33.2926 22.7076C33.4803 22.8952 33.7348 23.0006 34.0001 23.0006C34.2655 23.0006 34.52 22.8952 34.7076 22.7076L38.7076 18.7076C38.8006 18.6147 38.8744 18.5044 38.9247 18.383C38.975 18.2616 39.0009 18.1315 39.0009 18.0001C39.0009 17.8687 38.975 17.7385 38.9247 17.6171C38.8744 17.4957 38.8006 17.3854 38.7076 17.2926ZM14.0001 33.0001C13.4068 33.0001 12.8268 32.8241 12.3334 32.4945C11.8401 32.1648 11.4556 31.6963 11.2285 31.1481C11.0014 30.5999 10.942 29.9967 11.0578 29.4148C11.1735 28.8329 11.4593 28.2983 11.8788 27.8787C12.2984 27.4592 12.8329 27.1735 13.4149 27.0577C13.9968 26.942 14.6 27.0014 15.1482 27.2284C15.6964 27.4555 16.1649 27.84 16.4945 28.3334C16.8242 28.8267 17.0001 29.4067 17.0001 30.0001C17.0001 30.7957 16.6841 31.5588 16.1215 32.1214C15.5588 32.684 14.7958 33.0001 14.0001 33.0001Z" fill="#F087FE"/>
</svg>
