<svg width="48" height="48" viewBox="0 0 48 48" fill="none" xmlns="http://www.w3.org/2000/svg">
<rect width="48" height="48" fill="#8834D8" fill-opacity="0.4"/>
<path d="M37 14V19C37 19.2652 36.8946 19.5196 36.7071 19.7071C36.5196 19.8946 36.2652 20 36 20C35.7348 20 35.4804 19.8946 35.2929 19.7071C35.1054 19.5196 35 19.2652 35 19V15H31C30.7348 15 30.4804 14.8946 30.2929 14.7071C30.1054 14.5196 30 14.2652 30 14C30 13.7348 30.1054 13.4804 30.2929 13.2929C30.4804 13.1054 30.7348 13 31 13H36C36.2652 13 36.5196 13.1054 36.7071 13.2929C36.8946 13.4804 37 13.7348 37 14ZM17 33H13V29C13 28.7348 12.8946 28.4804 12.7071 28.2929C12.5196 28.1054 12.2652 28 12 28C11.7348 28 11.4804 28.1054 11.2929 28.2929C11.1054 28.4804 11 28.7348 11 29V34C11 34.2652 11.1054 34.5196 11.2929 34.7071C11.4804 34.8946 11.7348 35 12 35H17C17.2652 35 17.5196 34.8946 17.7071 34.7071C17.8946 34.5196 18 34.2652 18 34C18 33.7348 17.8946 33.4804 17.7071 33.2929C17.5196 33.1054 17.2652 33 17 33ZM36 28C35.7348 28 35.4804 28.1054 35.2929 28.2929C35.1054 28.4804 35 28.7348 35 29V33H31C30.7348 33 30.4804 33.1054 30.2929 33.2929C30.1054 33.4804 30 33.7348 30 34C30 34.2652 30.1054 34.5196 30.2929 34.7071C30.4804 34.8946 30.7348 35 31 35H36C36.2652 35 36.5196 34.8946 36.7071 34.7071C36.8946 34.5196 37 34.2652 37 34V29C37 28.7348 36.8946 28.4804 36.7071 28.2929C36.5196 28.1054 36.2652 28 36 28ZM12 20C12.2652 20 12.5196 19.8946 12.7071 19.7071C12.8946 19.5196 13 19.2652 13 19V15H17C17.2652 15 17.5196 14.8946 17.7071 14.7071C17.8946 14.5196 18 14.2652 18 14C18 13.7348 17.8946 13.4804 17.7071 13.2929C17.5196 13.1054 17.2652 13 17 13H12C11.7348 13 11.4804 13.1054 11.2929 13.2929C11.1054 13.4804 11 13.7348 11 14V19C11 19.2652 11.1054 19.5196 11.2929 19.7071C11.4804 19.8946 11.7348 20 12 20ZM31.5 28.875L24.5 32.875C24.3489 32.9614 24.1778 33.0068 24.0037 33.0068C23.8297 33.0068 23.6586 32.9614 23.5075 32.875L16.5 28.875C16.3467 28.7865 16.2196 28.6588 16.1317 28.5051C16.0439 28.3514 15.9984 28.1771 16 28V20C15.9984 19.8229 16.0439 19.6486 16.1317 19.4949C16.2196 19.3412 16.3467 19.2135 16.5 19.125L23.5 15.125C23.6511 15.0386 23.8222 14.9932 23.9963 14.9932C24.1703 14.9932 24.3414 15.0386 24.4925 15.125L31.4925 19.125C31.6458 19.2135 31.7729 19.3412 31.8608 19.4949C31.9486 19.6486 31.9941 19.8229 31.9925 20V28C31.9948 28.1763 31.9505 28.3501 31.864 28.5038C31.7775 28.6575 31.6519 28.7855 31.5 28.875ZM19.015 20L24 22.8488L28.985 20L24 17.1512L19.015 20ZM18 27.42L23 30.2763V24.58L18 21.7238V27.42ZM30 27.42V21.7238L25 24.58V30.2763L30 27.42Z" fill="#F087FE"/>
</svg>
