<svg width="48" height="48" viewBox="0 0 48 48" fill="none" xmlns="http://www.w3.org/2000/svg">
<rect width="48" height="48" fill="#8834D8" fill-opacity="0.4"/>
<path d="M24.0004 17.0001C24.2656 17.0001 24.5199 17.1054 24.7075 17.293C24.895 17.4805 25.0004 17.7348 25.0004 18.0001V25.0001C25.0004 25.2653 24.895 25.5196 24.7075 25.7072C24.5199 25.8947 24.2656 26.0001 24.0004 26.0001C23.7352 26.0001 23.4808 25.8947 23.2933 25.7072C23.1057 25.5196 23.0004 25.2653 23.0004 25.0001V18.0001C23.0004 17.7348 23.1057 17.4805 23.2933 17.293C23.4808 17.1054 23.7352 17.0001 24.0004 17.0001ZM22.5004 29.5001C22.5004 29.7967 22.5883 30.0867 22.7532 30.3334C22.918 30.5801 23.1523 30.7723 23.4263 30.8859C23.7004 30.9994 24.002 31.0291 24.293 30.9712C24.584 30.9134 24.8513 30.7705 25.061 30.5607C25.2708 30.3509 25.4137 30.0837 25.4716 29.7927C25.5294 29.5017 25.4997 29.2001 25.3862 28.926C25.2727 28.6519 25.0804 28.4177 24.8337 28.2529C24.5871 28.088 24.297 28.0001 24.0004 28.0001C23.6026 28.0001 23.221 28.1581 22.9397 28.4394C22.6584 28.7207 22.5004 29.1022 22.5004 29.5001ZM38.0004 24.0001C38.0011 24.262 37.9499 24.5215 37.8497 24.7635C37.7495 25.0055 37.6023 25.2253 37.4166 25.4101L25.4104 37.4176C25.0356 37.7901 24.5287 37.9991 24.0004 37.9991C23.472 37.9991 22.9651 37.7901 22.5904 37.4176L10.5904 25.4101C10.2179 25.0353 10.0088 24.5284 10.0088 24.0001C10.0088 23.4717 10.2179 22.9648 10.5904 22.5901L22.5966 10.5826C22.9713 10.2101 23.4783 10.001 24.0066 10.001C24.535 10.001 25.0419 10.2101 25.4166 10.5826L37.4229 22.5901C37.6074 22.7753 37.7535 22.9953 37.8526 23.2373C37.9517 23.4793 38.0019 23.7386 38.0004 24.0001ZM36.0004 24.0001L24.0004 12.0001L12.0004 24.0001L24.0004 36.0001L36.0004 24.0001Z" fill="#EEAADD"/>
</svg>
