<svg width="242" height="199" viewBox="0 0 242 199" fill="none" xmlns="http://www.w3.org/2000/svg">
<path d="M238.876 103.559C230.478 78.6206 212.179 65.8819 184.547 65.655C181.625 44.9439 166.39 20.9702 147.808 8.37332C136.346 0.627953 125.225 -1.81198 115.664 1.33724C108.685 3.63531 103.664 7.97612 100.713 14.2462C96.8267 22.5306 97.4224 32.6308 98.8977 40.3478C82.358 29.1695 50.3282 10.4728 35.3488 21.5092C30.6961 24.9422 28.0009 29.6518 27.547 35.0991C26.9229 42.7877 30.8379 50.9019 34.8665 57.0301C29.9301 55.9803 23.7171 54.8739 16.738 54.0227C9.50367 53.1432 3.94314 56.491 1.4182 63.2434C-2.49687 73.7124 2.07071 90.1961 10.4966 95.9271L12.0002 96.9485C17.7593 100.949 23.9157 105.233 36.3985 105.233C47.2075 105.233 62.7826 102.027 86.9255 92.6361C109.678 83.7842 130.672 79.1597 147.013 76.7481C171.468 76.2942 188.207 86.2525 198.079 106.878C197.994 106.935 197.909 106.964 197.824 107.02C187.895 112.666 163.723 129.944 165.057 163.451C165.766 181.722 170.816 193.042 180.036 197.071C182.391 198.092 184.831 198.546 187.242 198.546C193.058 198.546 198.704 196.021 202.392 192.872C207.044 188.9 212.009 181.41 211.981 172.331C211.981 167.082 210.222 159.365 201.938 152.301C193.37 145.009 189.625 137.548 190.76 130.115C191.895 122.738 197.682 116.78 203.214 113.744L205.484 112.638C217.91 106.51 228.577 107.758 233.854 109.063L241.372 110.907L238.904 103.559H238.876Z" fill="white"/>
<path d="M175.498 103.049C175.498 93.374 167.639 85.5151 157.965 85.5151C157.965 85.5151 157.88 85.5151 157.852 85.5151C139.979 85.5151 128.687 99.9278 124.29 128.299L132.688 129.604C134.503 117.83 137.34 109.971 140.461 104.694C141.284 113.603 148.802 120.582 157.909 120.582C167.583 120.582 175.441 112.723 175.441 103.049H175.498Z" fill="white"/>
</svg>
