<svg width="168" height="40" viewBox="0 0 168 40" fill="none" xmlns="http://www.w3.org/2000/svg">
<path d="M48.1249 20.8635C46.4331 15.8393 42.7466 13.2729 37.1796 13.2271C36.5909 9.0546 33.5217 4.22475 29.778 1.68693C27.4689 0.12651 25.2284 -0.365049 23.3023 0.269406C21.8962 0.732386 20.8846 1.60691 20.2902 2.8701C19.5071 4.53912 19.6272 6.57394 19.9244 8.12864C16.5922 5.87661 10.1393 2.1099 7.12153 4.33335C6.18417 5.02496 5.6412 5.97378 5.54975 7.07122C5.424 8.6202 6.21275 10.2549 7.02436 11.4895C6.02985 11.2781 4.77815 11.0551 3.37212 10.8837C1.91465 10.7065 0.794402 11.3809 0.285717 12.7413C-0.50303 14.8504 0.417175 18.1713 2.1147 19.3259L2.41762 19.5317C3.57788 20.3376 4.81816 21.2007 7.333 21.2007C9.51063 21.2007 12.6485 20.5548 17.5124 18.6629C22.0963 16.8795 26.3258 15.9479 29.618 15.462C34.5448 15.3706 37.917 17.3768 39.906 21.5322C39.8888 21.5436 39.8717 21.5494 39.8545 21.5608C37.8541 22.6982 32.9844 26.1792 33.2531 32.9295C33.3959 36.6105 34.4133 38.8911 36.2709 39.7028C36.7453 39.9085 37.2368 40 37.7226 40C38.8943 40 40.0317 39.4913 40.7747 38.8568C41.7121 38.0566 42.7123 36.5476 42.7066 34.7186C42.7066 33.6612 42.3522 32.1065 40.6833 30.6832C38.9572 29.2143 38.2027 27.711 38.4314 26.2135C38.66 24.7274 39.8259 23.527 40.9405 22.9154L41.3977 22.6925C43.9011 21.4579 46.0502 21.7094 47.1133 21.9723L48.6279 22.3439L48.1307 20.8635H48.1249Z" fill="white"/>
<path d="M35.3566 20.7605C35.3566 18.8114 33.7734 17.2281 31.8244 17.2281C31.8244 17.2281 31.8073 17.2281 31.8015 17.2281C28.2007 17.2281 25.926 20.1318 25.04 25.8476L26.7318 26.1105C27.0976 23.7385 27.6692 22.1552 28.2979 21.092C28.4637 22.8868 29.9783 24.2929 31.813 24.2929C33.762 24.2929 35.3452 22.7096 35.3452 20.7605H35.3566Z" fill="white"/>
<path d="M145.223 6H150.103L162.583 25H162.663V6H167.903V34H163.023L150.543 15.04H150.463V34H145.223V6Z" fill="white"/>
<path d="M119.168 6H124.608V17.72H128.848L135.608 6H141.728L133.528 19.96L142.408 34H136.168L128.808 22.36H124.608V34H119.168V6Z" fill="white"/>
<path d="M91.2388 6H96.6788V17.72H108.519V6H113.959V34H108.519V22.36H96.6788V34H91.2388V6Z" fill="white"/>
<path d="M64.6279 29.4V10.6L69.2279 6H82.9079L87.4279 10.52V14.8H81.9879V12.52L80.1079 10.64H72.1079L70.0679 12.68V27.32L72.1079 29.36H80.1079L81.9879 27.48V25.2H87.4279V29.48L82.9079 34H69.2279L64.6279 29.4Z" fill="white"/>
</svg>
