<svg width="149" height="22" viewBox="0 0 149 22" fill="none" xmlns="http://www.w3.org/2000/svg">
<g clip-path="url(#clip0_2079_3136)">
<mask id="mask0_2079_3136" style="mask-type:luminance" maskUnits="userSpaceOnUse" x="0" y="0" width="149" height="22">
<path d="M0.479492 0H148.521V22H0.479492V0Z" fill="white"/>
</mask>
<g mask="url(#mask0_2079_3136)">
<path d="M25.351 17.3457L21.2902 21.6999C21.2024 21.7945 21.096 21.87 20.9777 21.9216C20.8594 21.9733 20.7317 22 20.6027 22.0001H1.35268C1.26086 22 1.17106 21.9732 1.09426 21.9229C1.01746 21.8726 0.956992 21.801 0.920268 21.7168C0.883545 21.6327 0.872155 21.5397 0.887495 21.4491C0.902835 21.3586 0.944239 21.2745 1.00664 21.2072L5.06289 16.853C5.15072 16.7585 5.2571 16.683 5.37538 16.6313C5.49366 16.5797 5.62132 16.553 5.75039 16.5528H25.0004C25.093 16.5509 25.1842 16.5764 25.2624 16.6262C25.3406 16.676 25.4023 16.7477 25.4397 16.8325C25.4772 16.9173 25.4888 17.0112 25.473 17.1025C25.4572 17.1939 25.4148 17.2785 25.351 17.3457ZM21.2902 8.57552C21.202 8.48137 21.0956 8.40619 20.9774 8.35458C20.8592 8.30296 20.7317 8.27599 20.6027 8.27531H1.35268C1.26086 8.27536 1.17106 8.30218 1.09426 8.35249C1.01746 8.4028 0.956992 8.47442 0.920268 8.55857C0.883545 8.64271 0.872155 8.73574 0.887495 8.82627C0.902835 8.91679 0.944239 9.00087 1.00664 9.06823L5.06289 13.4247C5.15105 13.5188 5.25749 13.594 5.37569 13.6456C5.4939 13.6973 5.6214 13.7242 5.75039 13.7249H25.0004C25.092 13.7244 25.1815 13.6973 25.258 13.6468C25.3344 13.5963 25.3945 13.5246 25.431 13.4406C25.4674 13.3565 25.4786 13.2637 25.4632 13.1734C25.4478 13.0831 25.4064 12.9992 25.3441 12.932L21.2902 8.57552ZM1.35268 5.44739H20.6027C20.7318 5.4473 20.8594 5.42059 20.9777 5.36894C21.096 5.31728 21.2024 5.24179 21.2902 5.14718L25.351 0.793018C25.3985 0.742682 25.4344 0.682504 25.456 0.616757C25.4776 0.55101 25.4845 0.481308 25.4761 0.412601C25.4676 0.343822 25.4441 0.277766 25.4071 0.21914C25.3701 0.160515 25.3207 0.110764 25.2623 0.0734343C25.1842 0.0236947 25.093 -0.00181943 25.0004 0.000100957H5.75039C5.62132 0.000236816 5.49366 0.0269635 5.37537 0.0786143C5.25709 0.130265 5.15072 0.205732 5.06289 0.300309L1.00664 4.65448C0.944239 4.72183 0.902835 4.80591 0.887495 4.89643C0.872155 4.98696 0.883545 5.07999 0.920268 5.16414C0.956992 5.24828 1.01746 5.3199 1.09426 5.37021C1.17106 5.42052 1.26086 5.44734 1.35268 5.44739Z" fill="#D0D0DC"/>
<path d="M48.8202 9.30457H38.5215V5.9129H51.4969V2.52123H38.4871C37.8176 2.51756 37.1621 2.71251 36.6034 3.08144C36.0447 3.45036 35.608 3.97667 35.3484 4.59382C35.1762 5.00347 35.0863 5.44306 35.084 5.88746V9.32496C35.0858 9.76985 35.1753 10.21 35.3473 10.6203C35.5194 11.0306 35.7706 11.4029 36.0867 11.716C36.4028 12.0291 36.7775 12.2768 37.1893 12.4449C37.6012 12.6131 38.0422 12.6984 38.4871 12.696H48.7996V16.0877H35.3292V19.4793H48.8202C49.2647 19.4818 49.7054 19.3966 50.117 19.2288C50.5286 19.0609 50.9031 18.8136 51.2191 18.501C51.5351 18.1884 51.7865 17.8166 51.9588 17.4068C52.1311 16.9971 52.221 16.5574 52.2234 16.1129V12.6754C52.2216 12.2305 52.1321 11.7903 51.96 11.3801C51.788 10.9698 51.5367 10.5975 51.2206 10.2844C50.9046 9.97127 50.5299 9.72356 50.118 9.5554C49.7061 9.38724 49.2651 9.30192 48.8202 9.30434V9.30457ZM68.7715 2.52123H58.4338C57.9885 2.51773 57.547 2.60208 57.1344 2.76946C56.7218 2.93683 56.3463 3.18395 56.0293 3.49665C55.7124 3.80935 55.4602 4.1815 55.2873 4.59179C55.1143 5.00208 55.024 5.44245 55.0215 5.88769V16.1131C55.0238 16.5584 55.1139 16.9989 55.2868 17.4093C55.4596 17.8197 55.7118 18.1919 56.0288 18.5047C56.3458 18.8174 56.7214 19.0645 57.1341 19.2318C57.5468 19.3991 57.9885 19.4833 58.4338 19.4796H68.7715C69.4409 19.4833 70.0965 19.2883 70.6552 18.9195C71.2138 18.5506 71.6506 18.0243 71.9102 17.4072C72.0825 16.9974 72.1724 16.5577 72.1746 16.1131V5.88769C72.1723 5.44319 72.0824 5.0035 71.9101 4.59376C71.7377 4.18403 71.4863 3.81228 71.1702 3.49978C70.8542 3.18715 70.4797 2.93982 70.0682 2.77192C69.6566 2.60402 69.216 2.51884 68.7715 2.52123ZM68.7463 16.0879H58.459V5.9129H68.7417L68.7463 16.0879ZM104.98 2.52123H94.8965C94.227 2.51756 93.5715 2.71251 93.0128 3.08144C92.4541 3.45036 92.0174 3.97667 91.7578 4.59382C91.5855 5.00354 91.4956 5.44321 91.4934 5.88769V19.4796H94.9309V13.9085H104.968V19.4796H108.406V5.88769C108.402 5.21528 108.199 4.55915 107.821 4.003C107.443 3.44685 106.908 3.01588 106.284 2.76507C105.869 2.5985 105.426 2.51555 104.98 2.521V2.52123ZM104.955 10.5169H94.9171V5.9129H104.955V10.5169ZM145.118 2.52123H135.035C134.366 2.51756 133.71 2.71251 133.151 3.08144C132.593 3.45036 132.156 3.97667 131.896 4.59382C131.724 5.00354 131.634 5.44321 131.632 5.88769V19.4796H135.069V13.9085H145.084V19.4796H148.521V5.88769C148.519 5.44319 148.429 5.0035 148.257 4.59376C148.085 4.18403 147.833 3.81228 147.517 3.49978C146.879 2.86846 146.016 2.51647 145.118 2.52123ZM145.084 10.5169H135.046V5.9129H145.084V10.5169ZM125.146 16.0879H123.771L118.856 3.94207C118.687 3.523 118.398 3.16384 118.024 2.91068C117.65 2.65751 117.208 2.5219 116.757 2.52123H113.706C113.26 2.51877 112.823 2.64887 112.45 2.89508C112.078 3.14128 111.787 3.4925 111.614 3.90425C111.499 4.17751 111.439 4.47069 111.438 4.76707V19.4796H114.875V5.9129H116.25L121.164 18.0587C121.335 18.4771 121.627 18.8348 122.002 19.0863C122.378 19.3378 122.82 19.4715 123.272 19.4704H126.322C126.619 19.472 126.912 19.4151 127.187 19.303C127.461 19.191 127.711 19.0259 127.922 18.8173C128.347 18.396 128.588 17.8232 128.591 17.2246V2.52123H125.146V16.0879ZM78.6486 2.52123H75.2111V16.1131C75.2145 16.7841 75.4173 17.4388 75.7938 17.9942C76.1702 18.5496 76.7034 18.9805 77.3254 19.2321C77.7383 19.3994 78.1802 19.4835 78.6257 19.4796H88.9382V16.0879H78.6486V2.52123Z" fill="#D0D0DC"/>
</g>
</g>
<defs>
<clipPath id="clip0_2079_3136">
<rect width="149" height="22" fill="white"/>
</clipPath>
</defs>
</svg>
